<mxfile host="app.diagrams.net" modified="2023-10-31T09:48:33.583Z" agent="Mozilla/5.0 (X11; Ubuntu; Linux x86_64; rv:109.0) Gecko/20100101 Firefox/119.0" etag="e5y9w0gdbWpX5xGlSgf4" version="22.0.8" type="device">
  <diagram name="Page-1" id="Jrgt3sYGPVu8h39Zh5tt">
    <mxGraphModel dx="2390" dy="1263" grid="1" gridSize="10" guides="1" tooltips="1" connect="1" arrows="1" fold="1" page="1" pageScale="1" pageWidth="850" pageHeight="1100" math="0" shadow="0">
      <root>
        <mxCell id="0" />
        <mxCell id="1" parent="0" />
        <mxCell id="rZgsUoCGz8kG7AOwi9W0-12" value="" style="group" vertex="1" connectable="0" parent="1">
          <mxGeometry x="80" y="420" width="170" height="230" as="geometry" />
        </mxCell>
        <mxCell id="rZgsUoCGz8kG7AOwi9W0-9" value="&lt;div&gt;DOME Marketplace&lt;/div&gt;&lt;div&gt;&lt;br&gt;&lt;/div&gt;&lt;div&gt;&lt;br&gt;&lt;/div&gt;&lt;div&gt;&lt;br&gt;&lt;/div&gt;&lt;div&gt;&lt;br&gt;&lt;/div&gt;&lt;div&gt;&lt;br&gt;&lt;/div&gt;&lt;div&gt;&lt;br&gt;&lt;/div&gt;&lt;div&gt;&lt;br&gt;&lt;/div&gt;&lt;div&gt;&lt;br&gt;&lt;/div&gt;&lt;div&gt;&lt;br&gt;&lt;/div&gt;&lt;div&gt;&lt;br&gt;&lt;/div&gt;&lt;div&gt;&lt;br&gt;&lt;/div&gt;&lt;div&gt;&lt;br&gt;&lt;/div&gt;" style="rounded=0;whiteSpace=wrap;html=1;" vertex="1" parent="rZgsUoCGz8kG7AOwi9W0-12">
          <mxGeometry width="170" height="230" as="geometry" />
        </mxCell>
        <mxCell id="rZgsUoCGz8kG7AOwi9W0-10" value="BAE Marketplace" style="rounded=1;whiteSpace=wrap;html=1;" vertex="1" parent="rZgsUoCGz8kG7AOwi9W0-12">
          <mxGeometry x="25" y="60" width="120" height="60" as="geometry" />
        </mxCell>
        <mxCell id="rZgsUoCGz8kG7AOwi9W0-11" value="Access Node" style="rounded=1;whiteSpace=wrap;html=1;" vertex="1" parent="rZgsUoCGz8kG7AOwi9W0-12">
          <mxGeometry x="25" y="150" width="120" height="60" as="geometry" />
        </mxCell>
        <mxCell id="rZgsUoCGz8kG7AOwi9W0-13" value="" style="group" vertex="1" connectable="0" parent="1">
          <mxGeometry x="50" y="120" width="500" height="210" as="geometry" />
        </mxCell>
        <mxCell id="rZgsUoCGz8kG7AOwi9W0-3" value="&lt;div&gt;&lt;br&gt;&lt;/div&gt;&lt;div&gt;DOME Trust Anchor&lt;/div&gt;&lt;div&gt;&lt;br&gt;&lt;/div&gt;&lt;div&gt;&lt;br&gt;&lt;/div&gt;&lt;div&gt;&lt;br&gt;&lt;/div&gt;&lt;div&gt;&lt;br&gt;&lt;/div&gt;&lt;div&gt;&lt;br&gt;&lt;/div&gt;&lt;div&gt;&lt;br&gt;&lt;/div&gt;&lt;div&gt;&lt;br&gt;&lt;/div&gt;&lt;div&gt;&lt;br&gt;&lt;/div&gt;&lt;div&gt;&lt;br&gt;&lt;/div&gt;&lt;div&gt;&lt;br&gt;&lt;/div&gt;&lt;div&gt;&lt;br&gt;&lt;/div&gt;&lt;div&gt;&lt;br&gt;&lt;/div&gt;&lt;div&gt;&lt;br&gt;&lt;/div&gt;" style="rounded=0;whiteSpace=wrap;html=1;" vertex="1" parent="rZgsUoCGz8kG7AOwi9W0-13">
          <mxGeometry x="230" width="270" height="210" as="geometry" />
        </mxCell>
        <mxCell id="rZgsUoCGz8kG7AOwi9W0-4" value="Trusted Participants Registry" style="rounded=1;whiteSpace=wrap;html=1;" vertex="1" parent="rZgsUoCGz8kG7AOwi9W0-13">
          <mxGeometry x="305" y="40" width="120" height="60" as="geometry" />
        </mxCell>
        <mxCell id="rZgsUoCGz8kG7AOwi9W0-5" value="OnBoarding Portal" style="rounded=1;whiteSpace=wrap;html=1;" vertex="1" parent="rZgsUoCGz8kG7AOwi9W0-13">
          <mxGeometry x="305" y="130" width="120" height="60" as="geometry" />
        </mxCell>
        <mxCell id="rZgsUoCGz8kG7AOwi9W0-6" value="Gaia-X Digital Clearing House" style="rounded=1;whiteSpace=wrap;html=1;" vertex="1" parent="rZgsUoCGz8kG7AOwi9W0-13">
          <mxGeometry y="75" width="120" height="60" as="geometry" />
        </mxCell>
        <mxCell id="rZgsUoCGz8kG7AOwi9W0-7" value="" style="endArrow=none;html=1;rounded=0;exitX=1;exitY=0.5;exitDx=0;exitDy=0;entryX=0;entryY=0.5;entryDx=0;entryDy=0;" edge="1" parent="rZgsUoCGz8kG7AOwi9W0-13" source="rZgsUoCGz8kG7AOwi9W0-6" target="rZgsUoCGz8kG7AOwi9W0-3">
          <mxGeometry width="50" height="50" relative="1" as="geometry">
            <mxPoint x="120" y="70" as="sourcePoint" />
            <mxPoint x="170" y="20" as="targetPoint" />
          </mxGeometry>
        </mxCell>
        <mxCell id="rZgsUoCGz8kG7AOwi9W0-26" value="" style="group" vertex="1" connectable="0" parent="1">
          <mxGeometry x="330" y="420" width="170" height="230" as="geometry" />
        </mxCell>
        <mxCell id="rZgsUoCGz8kG7AOwi9W0-23" value="&lt;div&gt;Provider&lt;/div&gt;&lt;div&gt;&lt;br&gt;&lt;/div&gt;&lt;div&gt;&lt;br&gt;&lt;/div&gt;&lt;div&gt;&lt;br&gt;&lt;/div&gt;&lt;div&gt;&lt;br&gt;&lt;/div&gt;&lt;div&gt;&lt;br&gt;&lt;/div&gt;&lt;div&gt;&lt;br&gt;&lt;/div&gt;&lt;div&gt;&lt;br&gt;&lt;/div&gt;&lt;div&gt;&lt;br&gt;&lt;/div&gt;&lt;div&gt;&lt;br&gt;&lt;/div&gt;&lt;div&gt;&lt;br&gt;&lt;/div&gt;&lt;div&gt;&lt;br&gt;&lt;/div&gt;&lt;div&gt;&lt;br&gt;&lt;/div&gt;" style="rounded=0;whiteSpace=wrap;html=1;" vertex="1" parent="rZgsUoCGz8kG7AOwi9W0-26">
          <mxGeometry width="170" height="230" as="geometry" />
        </mxCell>
        <mxCell id="rZgsUoCGz8kG7AOwi9W0-22" value="" style="group" vertex="1" connectable="0" parent="rZgsUoCGz8kG7AOwi9W0-26">
          <mxGeometry width="170" height="230" as="geometry" />
        </mxCell>
        <mxCell id="rZgsUoCGz8kG7AOwi9W0-24" value="BAE Marketplace" style="rounded=1;whiteSpace=wrap;html=1;" vertex="1" parent="rZgsUoCGz8kG7AOwi9W0-22">
          <mxGeometry x="25" y="60" width="120" height="60" as="geometry" />
        </mxCell>
        <mxCell id="rZgsUoCGz8kG7AOwi9W0-25" value="Access Node" style="rounded=1;whiteSpace=wrap;html=1;" vertex="1" parent="rZgsUoCGz8kG7AOwi9W0-22">
          <mxGeometry x="25" y="150" width="120" height="60" as="geometry" />
        </mxCell>
        <mxCell id="rZgsUoCGz8kG7AOwi9W0-28" value="&lt;div&gt;Consumer&lt;/div&gt;&lt;div&gt;&lt;br&gt;&lt;/div&gt;&lt;div&gt;&lt;br&gt;&lt;/div&gt;&lt;div&gt;&lt;br&gt;&lt;/div&gt;&lt;div&gt;&lt;br&gt;&lt;/div&gt;&lt;div&gt;&lt;br&gt;&lt;/div&gt;&lt;div&gt;&lt;br&gt;&lt;/div&gt;&lt;div&gt;&lt;br&gt;&lt;/div&gt;&lt;div&gt;&lt;br&gt;&lt;/div&gt;&lt;div&gt;&lt;br&gt;&lt;/div&gt;&lt;div&gt;&lt;br&gt;&lt;/div&gt;&lt;div&gt;&lt;br&gt;&lt;/div&gt;&lt;div&gt;&lt;br&gt;&lt;/div&gt;" style="rounded=0;whiteSpace=wrap;html=1;" vertex="1" parent="1">
          <mxGeometry x="580" y="420" width="170" height="230" as="geometry" />
        </mxCell>
        <mxCell id="rZgsUoCGz8kG7AOwi9W0-29" value="" style="group" vertex="1" connectable="0" parent="1">
          <mxGeometry x="580" y="420" width="170" height="230" as="geometry" />
        </mxCell>
        <mxCell id="rZgsUoCGz8kG7AOwi9W0-31" value="Access Node" style="rounded=1;whiteSpace=wrap;html=1;" vertex="1" parent="rZgsUoCGz8kG7AOwi9W0-29">
          <mxGeometry x="25" y="90" width="120" height="60" as="geometry" />
        </mxCell>
        <mxCell id="rZgsUoCGz8kG7AOwi9W0-32" value="" style="endArrow=classic;html=1;rounded=0;entryX=0.5;entryY=1;entryDx=0;entryDy=0;exitX=0.5;exitY=0;exitDx=0;exitDy=0;" edge="1" parent="1" source="rZgsUoCGz8kG7AOwi9W0-9" target="rZgsUoCGz8kG7AOwi9W0-3">
          <mxGeometry width="50" height="50" relative="1" as="geometry">
            <mxPoint x="130" y="410" as="sourcePoint" />
            <mxPoint x="420" y="320" as="targetPoint" />
            <Array as="points">
              <mxPoint x="165" y="380" />
              <mxPoint x="415" y="380" />
            </Array>
          </mxGeometry>
        </mxCell>
        <mxCell id="rZgsUoCGz8kG7AOwi9W0-33" value="" style="endArrow=classic;html=1;rounded=0;exitX=0.5;exitY=0;exitDx=0;exitDy=0;entryX=0.5;entryY=1;entryDx=0;entryDy=0;" edge="1" parent="1" source="rZgsUoCGz8kG7AOwi9W0-23" target="rZgsUoCGz8kG7AOwi9W0-3">
          <mxGeometry width="50" height="50" relative="1" as="geometry">
            <mxPoint x="250" y="470" as="sourcePoint" />
            <mxPoint x="300" y="420" as="targetPoint" />
          </mxGeometry>
        </mxCell>
        <mxCell id="rZgsUoCGz8kG7AOwi9W0-34" value="" style="endArrow=classic;html=1;rounded=0;entryX=0.5;entryY=1;entryDx=0;entryDy=0;" edge="1" parent="1" target="rZgsUoCGz8kG7AOwi9W0-3">
          <mxGeometry width="50" height="50" relative="1" as="geometry">
            <mxPoint x="660" y="420" as="sourcePoint" />
            <mxPoint x="450" y="330" as="targetPoint" />
            <Array as="points">
              <mxPoint x="660" y="380" />
              <mxPoint x="415" y="380" />
            </Array>
          </mxGeometry>
        </mxCell>
        <mxCell id="rZgsUoCGz8kG7AOwi9W0-35" value="" style="image;aspect=fixed;html=1;points=[];align=center;fontSize=12;image=img/lib/azure2/blockchain/Consortium.svg;" vertex="1" parent="1">
          <mxGeometry x="381" y="760" width="68" height="68" as="geometry" />
        </mxCell>
        <mxCell id="rZgsUoCGz8kG7AOwi9W0-37" value="" style="endArrow=none;html=1;rounded=0;exitX=0.5;exitY=1;exitDx=0;exitDy=0;entryX=-0.088;entryY=0.441;entryDx=0;entryDy=0;entryPerimeter=0;" edge="1" parent="1" source="rZgsUoCGz8kG7AOwi9W0-9" target="rZgsUoCGz8kG7AOwi9W0-35">
          <mxGeometry width="50" height="50" relative="1" as="geometry">
            <mxPoint x="210" y="770" as="sourcePoint" />
            <mxPoint x="260" y="720" as="targetPoint" />
            <Array as="points">
              <mxPoint x="165" y="790" />
            </Array>
          </mxGeometry>
        </mxCell>
        <mxCell id="rZgsUoCGz8kG7AOwi9W0-38" value="" style="endArrow=none;html=1;rounded=0;exitX=0.5;exitY=-0.059;exitDx=0;exitDy=0;exitPerimeter=0;" edge="1" parent="1" source="rZgsUoCGz8kG7AOwi9W0-35">
          <mxGeometry width="50" height="50" relative="1" as="geometry">
            <mxPoint x="540" y="730" as="sourcePoint" />
            <mxPoint x="415" y="650" as="targetPoint" />
          </mxGeometry>
        </mxCell>
        <mxCell id="rZgsUoCGz8kG7AOwi9W0-39" value="" style="endArrow=none;html=1;rounded=0;exitX=1.059;exitY=0.515;exitDx=0;exitDy=0;exitPerimeter=0;" edge="1" parent="1" source="rZgsUoCGz8kG7AOwi9W0-35">
          <mxGeometry width="50" height="50" relative="1" as="geometry">
            <mxPoint x="480.00199999999995" y="845.02" as="sourcePoint" />
            <mxPoint x="670" y="650" as="targetPoint" />
            <Array as="points">
              <mxPoint x="670" y="795" />
            </Array>
          </mxGeometry>
        </mxCell>
      </root>
    </mxGraphModel>
  </diagram>
</mxfile>
